<svg xmlns="http://www.w3.org/2000/svg" width="200" height="400" viewBox="0 0 200 400">
  <defs>
    <linearGradient id="bg3" x1="0" y1="0" x2="0" y2="1">
      <stop offset="0" stop-color="#E8F5E9"/>
      <stop offset="1" stop-color="#C8E6C9"/>
    </linearGradient>
    <linearGradient id="skin3" x1="0" y1="0" x2="0" y2="1">
      <stop offset="0" stop-color="#F0B183"/>
      <stop offset="1" stop-color="#E0996B"/>
    </linearGradient>
    <linearGradient id="top3" x1="0" y1="0" x2="0" y2="1">
      <stop offset="0" stop-color="#263238"/>
      <stop offset="1" stop-color="#1B1B1B"/>
    </linearGradient>
  </defs>
  <rect width="200" height="400" fill="#F5F5F5"/>
  <g transform="translate(50,20)">
    <ellipse cx="100" cy="50" rx="45" ry="50" fill="url(#skin3)"/>
    <path d="M100 90 Q90 120 85 150 L95 150 Q100 135 105 150 L115 120 Q110 90 100 90Z" fill="#263238"/>
    <path d="M100 90 Q90 120 85 150" stroke="#E0996B" stroke-width="2" fill="none"/>
    <path d="M100 90 Q110 120 115 150" stroke="#E0996B" stroke-width="2" fill="none"/>
    <ellipse cx="82" cy="45" rx="10" ry="12" fill="#F0B183"/>
    <ellipse cx="118" cy="45" rx="10" ry="12" fill="#F0B183"/>
    <circle cx="78" cy="42" r="4" fill="#FFF"/>
    <circle cx="78" cy="42" r="2.5" fill="#2C1F17"/>
    <circle cx="78" cy="42" r="1" fill="#1B1B1B"/>
    <circle cx="122" cy="42" r="4" fill="#FFF"/>
    <circle cx="122" cy="42" r="2.5" fill="#2C1F17"/>
    <circle cx="122" cy="42" r="1" fill="#1B1B1B"/>
    <path d="M92 58 Q100 62 108 58" stroke="#2C1F17" stroke-width="1.5" fill="none"/>
    <path d="M80 150 Q90 145 100 145 Q110 145 120 150 L115 180 Q105 190 95 180Z" fill="#FF6F00"/>
    <path d="M80 180 L60 210 L90 210 L100 250" fill="#263238"/>
    <path d="M120 180 L140 210 L110 210 L100 250" fill="#263238"/>
    <rect x="55" y="150" width="10" height="50" rx="3" fill="#FF6F00"/>
    <rect x="135" y="150" width="10" height="50" rx="3" fill="#FF6F00"/>
    <path d="M50 210 L40 350 L85 350 L100 280" fill="#263238"/>
    <path d="M150 210 L160 350 L115 350 L100 280" fill="#263238"/>
    <rect x="45" y="210" width="110" height="140" rx="5" fill="#263238"/>
    <rect x="55" y="330" width="90" height="20" rx="5" fill="#FF6F00"/>
    <ellipse cx="70" cy="360" rx="14" ry="10" fill="#333"/>
    <ellipse cx="130" cy="360" rx="14" ry="10" fill="#333"/>
    <circle cx="100" cy="155" r="5" fill="#FF6F00"/>
    <circle cx="100" cy="155" r="2.5" fill="#263238"/>
  </g>
  <circle cx="100" cy="10" r="5" fill="#FFE44D"/>
  <text x="100" y="15" text-anchor="middle" font-size="8" font-weight="bold" fill="#333">FIT &amp; FIERCE</text>
</svg>
